<mxfile host="app.diagrams.net" agent="Mozilla/5.0 (Windows NT 10.0; Win64; x64) AppleWebKit/537.36 (KHTML, like Gecko) Chrome/132.0.0.0 Safari/537.36" version="26.0.6">
  <diagram name="Page-1" id="CSPjvqY9FOuS847hUlOu">
    <mxGraphModel dx="954" dy="566" grid="1" gridSize="10" guides="1" tooltips="1" connect="1" arrows="1" fold="1" page="1" pageScale="1" pageWidth="827" pageHeight="1169" math="0" shadow="0">
      <root>
        <mxCell id="0" />
        <mxCell id="1" parent="0" />
        <mxCell id="atNGK4b112jw8yFuXOB3-1" value="Buku" style="swimlane;childLayout=stackLayout;horizontal=1;startSize=30;horizontalStack=0;rounded=1;fontSize=14;fontStyle=0;strokeWidth=2;resizeParent=0;resizeLast=1;shadow=0;dashed=0;align=center;arcSize=4;whiteSpace=wrap;html=1;" parent="1" vertex="1">
          <mxGeometry x="380" y="524" width="160" height="130" as="geometry" />
        </mxCell>
        <mxCell id="atNGK4b112jw8yFuXOB3-15" value="&lt;div&gt;ID&lt;/div&gt;judul&lt;div&gt;ID_pengarang&lt;/div&gt;&lt;div&gt;tahun terbit&lt;/div&gt;" style="whiteSpace=wrap;html=1;align=center;" parent="atNGK4b112jw8yFuXOB3-1" vertex="1">
          <mxGeometry y="30" width="160" height="60" as="geometry" />
        </mxCell>
        <mxCell id="atNGK4b112jw8yFuXOB3-2" value="+dipinjam&lt;br&gt;+dikembalikan" style="align=left;strokeColor=none;fillColor=none;spacingLeft=4;fontSize=12;verticalAlign=top;resizable=0;rotatable=0;part=1;html=1;" parent="atNGK4b112jw8yFuXOB3-1" vertex="1">
          <mxGeometry y="90" width="160" height="40" as="geometry" />
        </mxCell>
        <mxCell id="atNGK4b112jw8yFuXOB3-18" value="Pengunjung" style="swimlane;childLayout=stackLayout;horizontal=1;startSize=30;horizontalStack=0;rounded=1;fontSize=14;fontStyle=0;strokeWidth=2;resizeParent=0;resizeLast=1;shadow=0;dashed=0;align=center;arcSize=4;whiteSpace=wrap;html=1;" parent="1" vertex="1">
          <mxGeometry x="160" y="320" width="160" height="130" as="geometry" />
        </mxCell>
        <mxCell id="atNGK4b112jw8yFuXOB3-19" value="ID&lt;div&gt;nama&lt;/div&gt;&lt;div&gt;address&lt;/div&gt;&lt;div&gt;phone_number&lt;/div&gt;" style="whiteSpace=wrap;html=1;align=center;" parent="atNGK4b112jw8yFuXOB3-18" vertex="1">
          <mxGeometry y="30" width="160" height="60" as="geometry" />
        </mxCell>
        <mxCell id="atNGK4b112jw8yFuXOB3-20" value="+pinjam buku&lt;br&gt;+mengembalikan buku" style="align=left;strokeColor=none;fillColor=none;spacingLeft=4;fontSize=12;verticalAlign=top;resizable=0;rotatable=0;part=1;html=1;" parent="atNGK4b112jw8yFuXOB3-18" vertex="1">
          <mxGeometry y="90" width="160" height="40" as="geometry" />
        </mxCell>
        <mxCell id="atNGK4b112jw8yFuXOB3-21" value="Petugas Perpustakaan" style="swimlane;childLayout=stackLayout;horizontal=1;startSize=30;horizontalStack=0;rounded=1;fontSize=14;fontStyle=0;strokeWidth=2;resizeParent=0;resizeLast=1;shadow=0;dashed=0;align=center;arcSize=4;whiteSpace=wrap;html=1;" parent="1" vertex="1">
          <mxGeometry x="540" y="310" width="160" height="150" as="geometry" />
        </mxCell>
        <mxCell id="atNGK4b112jw8yFuXOB3-22" value="ID&lt;div&gt;nama&lt;/div&gt;&lt;div&gt;nip_pegawai&lt;/div&gt;" style="whiteSpace=wrap;html=1;align=center;" parent="atNGK4b112jw8yFuXOB3-21" vertex="1">
          <mxGeometry y="30" width="160" height="60" as="geometry" />
        </mxCell>
        <mxCell id="atNGK4b112jw8yFuXOB3-23" value="+tambah buku&lt;br&gt;+hapus buku&lt;div&gt;+mengelola pengunjung&lt;/div&gt;" style="align=left;strokeColor=none;fillColor=none;spacingLeft=4;fontSize=12;verticalAlign=top;resizable=0;rotatable=0;part=1;html=1;" parent="atNGK4b112jw8yFuXOB3-21" vertex="1">
          <mxGeometry y="90" width="160" height="60" as="geometry" />
        </mxCell>
        <mxCell id="atNGK4b112jw8yFuXOB3-27" value="Peminjaman" style="swimlane;childLayout=stackLayout;horizontal=1;startSize=30;horizontalStack=0;rounded=1;fontSize=14;fontStyle=0;strokeWidth=2;resizeParent=0;resizeLast=1;shadow=0;dashed=0;align=center;arcSize=4;whiteSpace=wrap;html=1;" parent="1" vertex="1">
          <mxGeometry x="160" y="529" width="160" height="110" as="geometry" />
        </mxCell>
        <mxCell id="atNGK4b112jw8yFuXOB3-28" value="ID&lt;div&gt;tanggal_peminjaman&lt;/div&gt;&lt;div&gt;tanggal_pengembalian&lt;/div&gt;" style="whiteSpace=wrap;html=1;align=center;" parent="atNGK4b112jw8yFuXOB3-27" vertex="1">
          <mxGeometry y="30" width="160" height="50" as="geometry" />
        </mxCell>
        <mxCell id="atNGK4b112jw8yFuXOB3-29" value="+mencatat peminjaman" style="align=left;strokeColor=none;fillColor=none;spacingLeft=4;fontSize=12;verticalAlign=top;resizable=0;rotatable=0;part=1;html=1;" parent="atNGK4b112jw8yFuXOB3-27" vertex="1">
          <mxGeometry y="80" width="160" height="30" as="geometry" />
        </mxCell>
        <mxCell id="atNGK4b112jw8yFuXOB3-30" value="" style="endArrow=none;html=1;rounded=0;entryX=0.5;entryY=1;entryDx=0;entryDy=0;exitX=0.5;exitY=0;exitDx=0;exitDy=0;" parent="1" source="atNGK4b112jw8yFuXOB3-27" target="atNGK4b112jw8yFuXOB3-20" edge="1">
          <mxGeometry width="50" height="50" relative="1" as="geometry">
            <mxPoint x="410" y="600" as="sourcePoint" />
            <mxPoint x="460" y="550" as="targetPoint" />
          </mxGeometry>
        </mxCell>
        <mxCell id="atNGK4b112jw8yFuXOB3-32" value="" style="endArrow=none;html=1;rounded=0;entryX=0;entryY=0.5;entryDx=0;entryDy=0;exitX=1;exitY=0.5;exitDx=0;exitDy=0;" parent="1" source="atNGK4b112jw8yFuXOB3-28" target="atNGK4b112jw8yFuXOB3-15" edge="1">
          <mxGeometry width="50" height="50" relative="1" as="geometry">
            <mxPoint x="410" y="690" as="sourcePoint" />
            <mxPoint x="460" y="640" as="targetPoint" />
          </mxGeometry>
        </mxCell>
        <mxCell id="kj6qZRNKDgPodibfK0TU-1" value="" style="endArrow=none;html=1;rounded=0;entryX=0.5;entryY=1;entryDx=0;entryDy=0;" edge="1" parent="1" target="atNGK4b112jw8yFuXOB3-23">
          <mxGeometry width="50" height="50" relative="1" as="geometry">
            <mxPoint x="540" y="585" as="sourcePoint" />
            <mxPoint x="600" y="585" as="targetPoint" />
            <Array as="points">
              <mxPoint x="620" y="585" />
            </Array>
          </mxGeometry>
        </mxCell>
        <mxCell id="kj6qZRNKDgPodibfK0TU-2" value="" style="endArrow=none;html=1;rounded=0;entryX=0;entryY=0.5;entryDx=0;entryDy=0;exitX=1;exitY=0.5;exitDx=0;exitDy=0;" edge="1" parent="1" source="atNGK4b112jw8yFuXOB3-18" target="atNGK4b112jw8yFuXOB3-21">
          <mxGeometry width="50" height="50" relative="1" as="geometry">
            <mxPoint x="440" y="510" as="sourcePoint" />
            <mxPoint x="490" y="460" as="targetPoint" />
          </mxGeometry>
        </mxCell>
      </root>
    </mxGraphModel>
  </diagram>
</mxfile>
